HIERARCHY
ROOT Hips
{
	OFFSET 0.00000 0.00000 0.00000
	CHANNELS 6 Xposition Yposition Zposition Zrotation Yrotation Xrotation 
	JOINT LHipJoint
	{
		OFFSET 0 0 0
		CHANNELS 3 Zrotation Yrotation Xrotation
		JOINT LeftHip
		{
			OFFSET 1.86795 -1.59681 0.65681
			CHANNELS 3 Zrotation Yrotation Xrotation
			JOINT LeftKnee
			{
				OFFSET 2.30491 -6.33268 0.00000
				CHANNELS 3 Zrotation Yrotation Xrotation
				JOINT LeftAnkle
				{
					OFFSET 2.46780 -6.78022 0.00000
					CHANNELS 3 Zrotation Yrotation Xrotation
					JOINT LeftToe
					{
						OFFSET 0.07897 -0.21698 1.59652
						CHANNELS 3 Zrotation Yrotation Xrotation
						End Site
						{
							OFFSET 0.00000 -0.00000 0.82310
						}
					}
				}
			}
		}
	}
	JOINT RHipJoint
	{
		OFFSET 0 0 0
		CHANNELS 3 Zrotation Yrotation Xrotation
		JOINT RightHip
		{
			OFFSET -1.93650 -1.59681 0.65681
			CHANNELS 3 Zrotation Yrotation Xrotation
			JOINT RightKnee
			{
				OFFSET -2.29410 -6.30299 0.00000
				CHANNELS 3 Zrotation Yrotation Xrotation
				JOINT RightAnkle
				{
					OFFSET -2.48738 -6.83403 0.00000
					CHANNELS 3 Zrotation Yrotation Xrotation
					JOINT RightToe
					{
						OFFSET -0.08699 -0.23899 1.89395
						CHANNELS 3 Zrotation Yrotation Xrotation
						End Site
						{
							OFFSET -0.00000 -0.00000 0.96904
						}
					}
				}
			}
		}
	}
	JOINT lowerback
	{
		OFFSET 0 0 0
		CHANNELS 3 Zrotation Yrotation Xrotation
		JOINT Chest
		{
			OFFSET 0.03629 1.99740 -0.07548
			CHANNELS 3 Zrotation Yrotation Xrotation
			JOINT Chest2
			{
				OFFSET 0.03970 1.94298 0.17218
				CHANNELS 3 Zrotation Yrotation Xrotation
				JOINT lowerneck
				{
					OFFSET 0 0 0
					CHANNELS 3 Zrotation Yrotation Xrotation
					JOINT Neck
					{
						OFFSET -0.05054 1.79469 0.04241
						CHANNELS 3 Zrotation Yrotation Xrotation
						JOINT Head
						{
							OFFSET 0.05195 1.78475 -0.22133
							CHANNELS 3 Zrotation Yrotation Xrotation
							End Site
							{
								OFFSET 0.02420 1.80711 -0.07950
							}
						}
					}
				}
				JOINT LeftCollar
				{
					OFFSET 0 0 0
					CHANNELS 3 Zrotation Yrotation Xrotation
					JOINT LeftShoulder
					{
						OFFSET 2.92134 1.19850 0.36056
CHANNELS 3 Zrotation Xrotation Yrotation
						JOINT LeftElbow
						{
OFFSET 0 -4.841370 0.000000
CHANNELS 3 Zrotation Xrotation Yrotation
							JOINT LeftWrist
							{
OFFSET 0 -3.245200 -0.000000
CHANNELS 3 Zrotation Xrotation Yrotation
								JOINT lhand
								{
									OFFSET 0 0 0
CHANNELS 3 Zrotation Xrotation Yrotation
									JOINT LFingers
									{
OFFSET 0 -0.521220 0.000000
CHANNELS 3 Zrotation Xrotation Yrotation
										End Site
										{
OFFSET 0 -0.420220 0.000000
										}
									}
								}
								JOINT LThumb
								{
OFFSET 0 0.000000 0.000000
CHANNELS 3 Zrotation Xrotation Yrotation
									End Site
									{
OFFSET 0 -0.426640 0.426640
									}
								}
							}
						}
					}
				}
				JOINT RightCollar
				{
					OFFSET 0 0 0
					CHANNELS 3 Zrotation Yrotation Xrotation
					JOINT RightShoulder
					{
						OFFSET -2.84327 1.20795 0.50191
CHANNELS 3 Zrotation Xrotation Yrotation
						JOINT RightElbow
						{
OFFSET 0 -4.722840 0.000000
CHANNELS 3 Zrotation Xrotation Yrotation
							JOINT RightWrist
							{
OFFSET 0 -3.234590 0.000000
CHANNELS 3 Zrotation Xrotation Yrotation
								JOINT rhand
								{
									OFFSET 0 0 0
CHANNELS 3 Zrotation Xrotation Yrotation
									JOINT RFingers
									{
OFFSET 0 -0.307420 0.000000
CHANNELS 3 Zrotation Xrotation Yrotation
										End Site
										{
OFFSET 0 -0.247850 0.000000
										}
									}
								}
								JOINT RThumb
								{
OFFSET 0 0.000000 0.000000
CHANNELS 3 Zrotation Xrotation Yrotation
									End Site
									{
OFFSET 0 -0.251630 0.251630
									}
								}
							}
						}
					}
				}
			}
		}
	}
}
MOTION
Frames: 4
Frame Time: 0.008333333333333333
13.528646 16.057127 -4.797129 19.053045 -66.872986 -368.901776 0.000000 0.000000 0.000000 -14.388785 8.312497 -19.104077 5.701079 14.129101 43.763679 -0.599476 13.677775 -6.141998 0.065484 -1.576245 -4.337480 0.000000 0.000000 0.000000 9.904672 2.149183 -43.663055 -5.500866 -13.926501 42.943985 0.680052 -21.226414 -24.477814 -2.338213 -9.536614 27.489537 -4.432684 -2.529470 5.018973 0.137964 -3.823857 -5.041069 3.067557 -1.639594 -7.824039 -9.770376 1.880340 7.585333 12.261405 -0.092640 17.923464 5.486547 -0.412917 4.009493 0.000000 0.000000 0.000000 128.725957 -42.176702 55.269579 24.785512 -35.983884 8.163550 -25.736705 25.004341 -32.635813 0.000000 0.000000 0.000000 -7.125000 0.000000 0.000000 -58.356884 53.395989 16.387202 0.000000 0.000000 0.000000 -132.358204 -28.874177 -64.902417 -18.416002 -28.686417 -4.747309 20.430488 -16.150155 -18.767774 0.000000 0.000000 0.000000 7.125000 0.000000 0.000000 30.012355 11.491522 27.651782
13.177579 16.116969 -4.745633 18.870288 -68.670907 -368.855549 0.000000 0.000000 0.000000 -11.885963 7.724873 -21.482987 7.217236 15.509960 49.687508 -0.171614 12.461987 6.148131 0.937159 5.798781 16.288928 0.000000 0.000000 0.000000 11.422432 1.711856 -42.155804 -5.321727 -13.737195 42.194751 0.827219 -21.301388 -23.158688 -1.966013 -8.791791 25.148226 -4.022519 -2.507501 4.801375 0.537258 -3.716605 -4.981407 3.232564 -1.603805 -7.637002 -9.633922 1.827744 7.475490 12.072158 -0.215376 18.494521 5.413212 -0.483382 4.218110 0.000000 0.000000 0.000000 129.792193 -40.812318 57.107019 24.933608 -36.136092 8.250751 -23.020825 26.730239 -33.371520 0.000000 0.000000 0.000000 -7.125000 0.000000 0.000000 -57.016458 54.410967 17.396902 0.000000 0.000000 0.000000 -131.769387 -28.177034 -63.936876 -17.695110 -27.764662 -4.406373 20.658462 -16.803664 -17.693823 0.000000 0.000000 0.000000 7.125000 0.000000 0.000000 30.320461 12.447750 27.328083
12.835302 16.164693 -4.733349 17.622731 -69.024935 -368.109618 0.000000 0.000000 0.000000 -9.412390 6.193080 -24.669769 8.840804 16.703951 55.537539 0.310667 13.669085 13.005129 1.311963 7.254641 20.472098 0.000000 0.000000 0.000000 12.629818 0.672972 -40.533669 -5.213769 -13.620567 41.738269 0.452900 -19.775234 -24.123538 -2.581630 -9.984746 28.927442 -3.608363 -2.420440 5.331358 0.858772 -3.566378 -5.125020 3.360842 -1.526198 -8.116375 -9.882120 1.683604 8.399901 12.053567 -0.514578 18.359953 5.444100 -0.686462 4.062929 0.000000 0.000000 0.000000 130.787186 -40.656247 60.113096 25.405699 -36.615803 8.530677 -23.916621 28.127555 -33.432715 0.000000 0.000000 0.000000 -7.125000 0.000000 0.000000 -57.785480 54.269223 17.550920 0.000000 0.000000 0.000000 -130.746588 -27.014740 -64.105006 -16.715111 -26.480703 -3.959482 22.854055 -14.275364 -17.675772 0.000000 0.000000 0.000000 7.125000 0.000000 0.000000 31.439733 12.218169 28.967207
12.500343 16.157788 -4.723666 15.363895 -69.167155 -366.577414 0.000000 0.000000 0.000000 -7.459020 5.940597 -28.601366 10.349360 17.600934 60.648792 -0.070160 15.168540 9.838023 2.228170 9.324105 26.815929 0.000000 0.000000 0.000000 14.305678 -0.465390 -39.136034 -5.243204 -13.652604 41.863185 0.580788 -19.977455 -23.220741 -1.740312 -8.296802 23.622707 -2.805491 -2.314447 5.939217 1.151220 -3.342612 -5.117738 3.229274 -1.441473 -8.506643 -10.234505 1.666181 8.426123 11.705761 -0.617718 19.240175 5.410680 -0.789856 4.346432 0.000000 0.000000 0.000000 132.059495 -40.380575 63.148382 25.706059 -36.916884 8.710582 -25.025852 27.743180 -32.963049 0.000000 0.000000 0.000000 -7.125000 0.000000 0.000000 -58.153155 53.745889 16.874913 0.000000 0.000000 0.000000 -129.258519 -25.606906 -64.395761 -15.846972 -25.312573 -3.580408 22.675951 -13.192475 -17.073521 0.000000 0.000000 0.000000 7.125000 0.000000 0.000000 31.465723 12.787284 28.542500
